<mxfile host="app.diagrams.net" modified="2024-04-18T20:02:37.344Z" agent="Mozilla/5.0 (X11; Linux x86_64; rv:125.0) Gecko/20100101 Firefox/125.0" version="24.2.5" etag="GSiecu2wXZwQt_-Lr8qd" type="github">
  <diagram name="Page-1" id="-YDtosyH1uLrpDTp0y37">
    <mxGraphModel>
      <root>
        <mxCell id="0" />
        <mxCell id="1" parent="0" />
      </root>
    </mxGraphModel>
  </diagram>
</mxfile>
